<svg t="1609740429042" class="icon" viewBox="0 0 1024 1024" version="1.1" xmlns="http://www.w3.org/2000/svg" p-id="6705" width="128" height="128"><path d="M1007.711495 474.283637a496.592687 496.592687 0 0 0-992.19318 44.648693 481.585765 481.585765 0 0 0 59.531591 244.32757 80.202282 80.202282 0 0 1 4.960966 64.079143l-51.676729 154.616771a20.257277 20.257277 0 0 0 26.871899 25.631657l138.080218-53.743797a82.682765 82.682765 0 0 1 72.347419 4.134138 496.09659 496.09659 0 0 0 740.424161-483.694175z" fill="#21CC86" p-id="6706"></path><path d="M455.804039 710.756345a41.341383 41.341383 0 1 1 41.341382 41.341382 41.341383 41.341383 0 0 1-41.341382-41.341382z m82.682765-124.024148a77.721799 77.721799 0 0 1 33.073106-67.799867 123.48671 123.48671 0 1 0-198.438636-97.565663 41.341383 41.341383 0 0 0 82.682765 0c0-31.832865 9.508518-41.341383 41.341382-41.341383s41.341383 9.508518 41.341383 41.341383c0 14.882898-4.960966 20.257277-23.151174 37.207244a158.337495 158.337495 0 0 0-59.531591 128.158286 41.341383 41.341383 0 0 0 82.682765 0z" fill="#199E65" p-id="6707"></path><path d="M476.47473 690.085653a41.341383 41.341383 0 1 1 41.341383 41.341383 41.341383 41.341383 0 0 1-41.341383-41.341383z m82.682765-124.024147a77.721799 77.721799 0 0 1 33.073106-67.799868 123.48671 123.48671 0 1 0-198.438636-97.565662 41.341383 41.341383 0 0 0 82.682765 0c0-31.832865 9.508518-41.341383 41.341383-41.341383s41.341383 9.508518 41.341382 41.341383c0 14.882898-4.960966 20.257277-23.151174 37.207244a158.337495 158.337495 0 0 0-59.531591 128.158286 41.341383 41.341383 0 1 0 82.682765 0z" fill="#00FF91" p-id="6708"></path></svg>