<svg t="1609659531023" class="icon" viewBox="0 0 1024 1024" version="1.1" xmlns="http://www.w3.org/2000/svg" p-id="1404" width="64" height="64"><path d="M804.43 472.43c7.24 3.55 12.24 11 12.24 19.59v348.95c0 12.03-9.78 21.81-21.81 21.81H227.81c-12.03 0-21.81-9.78-21.81-21.81V492.03c0-8.59 5-16.04 12.24-19.59l265.68 122.62c8.7 4.01 18.06 6.02 27.42 6.02s18.72-2.01 27.42-6.02l265.67-122.63m-9.57-67.64L511.33 535.65 227.81 404.79c-48.18 0-87.24 39.06-87.24 87.24v348.95c0 48.18 39.06 87.24 87.24 87.24h567.05c48.18 0 87.24-39.06 87.24-87.24V492.03c0-48.18-39.06-87.24-87.24-87.24z" fill="#0081FF" p-id="1405"></path><path d="M773.05 470.22c-18.06 0-32.71-14.65-32.71-32.71v-218.1c0-30.07-24.45-54.52-54.52-54.52H336.86c-30.07 0-54.52 24.45-54.52 54.52v218.1c0 18.06-14.65 32.71-32.71 32.71s-32.71-14.65-32.71-32.71v-218.1c0-66.15 53.8-119.95 119.95-119.95h348.95c66.15 0 119.95 53.8 119.95 119.95v218.1c-0.01 18.05-14.66 32.71-32.72 32.71z" fill="#0081FF" p-id="1406"></path><path d="M467.71 295.74h-87.24c-18.06 0-32.71-14.65-32.71-32.71s14.65-32.71 32.71-32.71h87.24c18.06 0 32.71 14.65 32.71 32.71s-14.64 32.71-32.71 32.71zM554.95 404.79H380.48c-18.06 0-32.71-14.65-32.71-32.71s14.65-32.71 32.71-32.71h174.48c18.06 0 32.71 14.65 32.71 32.71s-14.66 32.71-32.72 32.71z" fill="#0081FF" p-id="1407"></path></svg>