<svg t="1609743076733" class="icon" viewBox="0 0 1024 1024" version="1.1" xmlns="http://www.w3.org/2000/svg" p-id="8898" width="128" height="128"><path d="M596.2 833.4c-26.5-14.8-48.3-35.1-63.2-58.7-14.1-23-21.3-48.9-21-75.2 0-30.9 10.3-60.9 29.5-86.5 15.7-19.7 36.5-36.5 60.5-48.7 30-15.5 54.1-38 69.7-65 12.6-21.7 16.2-44.9 19.4-65.3 0 0 1.2-4.9 2.3-6.3 62.9-118.9 225.8-37.4 225.8 264.3 0 16.4-2.6 32.9-7.1 48.5-11.8 39.7-38.5 75.8-75.2 102-121.3 117.9-240.6-17.7-240.7-9.1z" fill="#FBDCDA" p-id="8899"></path><path d="M415 716.5c59.3 71.5 149 179.4 236 222 5.1 2.9 39 21.5 76.9 21.5 14.8 0 30.2-2.8 44.7-10.5l4.2-2.6c81.7-57.1 141.2-137.1 167.6-225.6 9.9-34.5 15.1-70 15.4-106-0.2-97-39.1-191.9-109.7-267.4-23.7-25-49.5-35.6-76.8-31.3-19.7 3.1-36.4 13.8-48.6 26.8-6.8-28.3-16.9-55.8-30.3-82.3-2-5.2-4.7-10.1-7.9-14.8C649 176.6 589.7 118 513.4 75.7c-21.5-10.7-54.3-16.7-79.3-6-29.3 12.6-44.1 50.8-46.8 67.4l-0.7 4c-5.3 33.8-10.3 65.6-26.3 93.1-20.8 36-53 65.9-93 86.6-53.1 27.1-99.7 64.7-135.4 109.5C87.5 489.4 64 558 64 628.1c-0.9 59.7 15.8 119.1 48.2 172.2 35.1 55.8 86.6 102.9 147.6 135.3 28.6 16.8 65.2 16.6 93.1-0.4 29.2-17.8 28.6-54.1 25.1-116.9-0.5-9.2-1-17.2-1.1-24.2-1.7-40.4 6.7-79 15.6-104.5 7.2 8.5 15.1 18 22.5 26.9z m-67.7-107.2c-32 30.2-55.6 114.4-52.5 186.3 0 6.5 0.5 15.9 1.1 26.5 0.6 10.9 1.8 31.7 1.5 47-47.6-26.5-86.8-63-113.5-105.4-25.3-41.3-38.3-87.9-37.7-135.1 0-55.5 18.5-109.5 53-155.3 28.1-35.4 65.7-65.5 108.7-87.5C361.7 358 405 317.6 433.1 269c22.6-38.9 29.1-80.6 34.9-117.4 0 0 2.1-8.8 4.1-11.4 61.9 34.4 110.9 83 141.7 140.6l5.2 9.8c14.6 28.5 24.5 58.6 29.5 88.5 2.2 15.6 3.4 31.4 3.5 46.8 0 5-0.9 12.3-1.7 18.9-1.9 16.5-2.8 37.4 10.1 49.6 8.4 9.4 30 10.3 30 10.3 46.3 0 92.9-106.9 93.5-108.3 0.3-0.7 0.8-1.4 1.4-2.3 0.7 0.7 1.5 1.5 2.3 2.4 57.9 61.8 89.9 139.6 90 218.5-0.3 29.5-4.6 59-12.7 87.2-21.3 71.3-69.2 136.2-135 183.3-5.9 1-23-3.2-37.5-11.3-73.8-36.2-156.9-136.3-211.9-202.5-50.3-60.5-65.4-78.7-93.7-78.7-10-0.2-25.1 2.6-39.5 16.3z" fill="#EA3E31" p-id="8900"></path></svg>