<svg t="1609665426223" class="icon" viewBox="0 0 1054 1024" version="1.1" xmlns="http://www.w3.org/2000/svg" p-id="2178" width="128" height="128"><path d="M570.477039 28.040397L694.725004 290.073071a48.345512 48.345512 0 0 0 36.259134 27.073486l281.370879 43.027506a48.345512 48.345512 0 0 1 27.073486 81.703915l-206.435335 211.269886a48.345512 48.345512 0 0 0-13.053288 42.060595L870.219212 966.910236a48.345512 48.345512 0 0 1-67.683717 52.696607l-253.813936-115.545773a48.345512 48.345512 0 0 0-40.126775 0l-255.747757 115.062318A48.345512 48.345512 0 0 1 185.16331 966.910236l48.345512-268.801046a48.345512 48.345512 0 0 0-13.053288-42.060595L14.020198 443.811798A48.345512 48.345512 0 0 1 41.093685 362.591338l281.370879-43.027505A48.345512 48.345512 0 0 0 358.723697 290.073071L483.455118 28.040397a48.345512 48.345512 0 0 1 87.021921 0z" fill="#FFCE00" p-id="2179"></path><path d="M1039.911958 443.811798a48.345512 48.345512 0 0 0-27.073486-81.703915l-281.370879-43.027505a48.345512 48.345512 0 0 1-36.742589-29.007307L570.477039 28.040397a48.345512 48.345512 0 0 0-43.510961-28.040397v898.743064a48.345512 48.345512 0 0 1 19.82166 4.351096l253.813937 115.545773A48.345512 48.345512 0 0 0 870.219212 966.910236l-48.345512-268.801046a48.345512 48.345512 0 0 1 13.053288-42.060595z" fill="#FFEC00" p-id="2180"></path></svg>