<?xml version="1.0" standalone="no"?><!DOCTYPE svg PUBLIC "-//W3C//DTD SVG 1.1//EN" "http://www.w3.org/Graphics/SVG/1.1/DTD/svg11.dtd"><svg t="1607188125886" class="icon" viewBox="0 0 1024 1024" version="1.1" xmlns="http://www.w3.org/2000/svg" p-id="7171" xmlns:xlink="http://www.w3.org/1999/xlink" width="48" height="48"><defs><style type="text/css"></style></defs><path d="M10.44898 504.832c0-277.002449 224.548571-501.55102 501.55102-501.55102s501.55102 224.548571 501.55102 501.55102-224.548571 501.55102-501.55102 501.55102-501.55102-224.548571-501.55102-501.55102z" fill="#F8991D" p-id="7172"></path><path d="M779.493878 705.452408h-89.150694c0-208.958694-170.004898-378.963592-378.963592-378.963592v-89.150694c258.110694 0 468.114286 210.003592 468.114286 468.114286z m-468.114286-66.873469a66.873469 66.873469 0 1 1 133.746939 0 66.873469 66.873469 0 0 1-133.746939 0z m222.91853 66.873469h89.150694c0-172.073796-139.995429-312.090122-312.069224-312.090122v89.19249c122.921796 0 222.918531 99.975837 222.91853 222.897632z" fill="#FFFFFF" p-id="7173"></path></svg>